<svg width="88" height="31" viewBox="0 0 88 31" fill="none" xmlns="http://www.w3.org/2000/svg">
<g id="LOGO">
<g id="Vector">
<path d="M24.5121 0.0148139C25.5983 0.0148139 26.5512 0.227136 27.3709 0.651781C28.2004 1.07643 28.8373 1.68377 29.2817 2.47381C29.7359 3.25397 29.963 4.16251 29.963 5.19944C29.963 6.23636 29.7359 7.1449 29.2817 7.92507C28.8373 8.69535 28.2004 9.29282 27.3709 9.71746C26.5512 10.1421 25.5983 10.3544 24.5121 10.3544H20.8978V0.0148139H24.5121ZM24.438 8.59166C25.5242 8.59166 26.3636 8.2954 26.9561 7.70287C27.5486 7.11034 27.8449 6.27586 27.8449 5.19944C27.8449 4.12301 27.5486 3.28359 26.9561 2.68119C26.3636 2.06891 25.5242 1.76277 24.438 1.76277H22.9716V8.59166H24.438Z" fill="#37003C"/>
<path d="M38.6549 10.3544H36.5812L31.8856 3.25891V10.3544H29.8119V0H31.8856L36.5812 7.11034V0H38.6549V10.3544Z" fill="#37003C"/>
<path d="M45.3405 8.38428H41.2226L40.5413 10.3544H38.3639L42.0818 0H44.4962L48.2141 10.3544H46.0219L45.3405 8.38428ZM44.7776 6.7252L43.2816 2.39974L41.7855 6.7252H44.7776Z" fill="#37003C"/>
<path d="M22.9716 21.8358H29.8132V23.4801H20.8978V13.1404H22.9716V21.8358Z" fill="#37003C"/>
<path d="M30.7923 23.5837C29.8245 23.5837 28.9358 23.3566 28.1261 22.9023C27.3163 22.4481 26.6744 21.821 26.2004 21.0211C25.7265 20.2113 25.4895 19.2978 25.4895 18.2806C25.4895 17.2733 25.7265 16.3697 26.2004 15.5698C26.6744 14.76 27.3163 14.128 28.1261 13.6737C28.9358 13.2194 29.8245 12.9923 30.7923 12.9923C31.7699 12.9923 32.6587 13.2194 33.4585 13.6737C34.2683 14.128 34.9052 14.76 35.3693 15.5698C35.8433 16.3697 36.0803 17.2733 36.0803 18.2806C36.0803 19.2978 35.8433 20.2113 35.3693 21.0211C34.9052 21.821 34.2683 22.4481 33.4585 22.9023C32.6488 23.3566 31.76 23.5837 30.7923 23.5837ZM30.7923 21.7321C31.4144 21.7321 31.9625 21.5938 32.4365 21.3173C32.9105 21.0309 33.2808 20.626 33.5474 20.1026C33.814 19.5792 33.9473 18.9719 33.9473 18.2806C33.9473 17.5893 33.814 16.9869 33.5474 16.4734C33.2808 15.95 32.9105 15.5501 32.4365 15.2735C31.9625 14.997 31.4144 14.8588 30.7923 14.8588C30.1702 14.8588 29.6172 14.997 29.1333 15.2735C28.6593 15.5501 28.289 15.95 28.0224 16.4734C27.7557 16.9869 27.6224 17.5893 27.6224 18.2806C27.6224 18.9719 27.7557 19.5792 28.0224 20.1026C28.289 20.626 28.6593 21.0309 29.1333 21.3173C29.6172 21.5938 30.1702 21.7321 30.7923 21.7321Z" fill="#37003C"/>
<path d="M44.7627 23.4801H42.689L37.9934 16.3845V23.4801H35.9197V13.1256H37.9934L42.689 20.236V13.1256H44.7627V23.4801Z" fill="#37003C"/>
<path d="M52.3074 16.2512C52.0704 15.8167 51.7445 15.4859 51.3298 15.2587C50.915 15.0316 50.4312 14.918 49.8782 14.918C49.2659 14.918 48.7228 15.0563 48.2488 15.3328C47.7748 15.6093 47.4045 16.0043 47.1379 16.5179C46.8713 17.0314 46.7379 17.6239 46.7379 18.2954C46.7379 18.9867 46.8713 19.5891 47.1379 20.1026C47.4144 20.6162 47.7946 21.0112 48.2784 21.2877C48.7623 21.5642 49.3252 21.7025 49.967 21.7025C50.757 21.7025 51.4038 21.4951 51.9075 21.0803C52.4111 20.6557 52.7419 20.0681 52.8999 19.3175H49.3449V17.7325H54.944V19.5397C54.8058 20.2607 54.5095 20.9272 54.0553 21.5395C53.601 22.1518 53.0135 22.6456 52.2926 23.0208C51.5816 23.3862 50.7817 23.5689 49.893 23.5689C48.8956 23.5689 47.9921 23.3467 47.1823 22.9023C46.3824 22.4481 45.7505 21.821 45.2863 21.0211C44.8321 20.2212 44.605 19.3126 44.605 18.2954C44.605 17.2783 44.8321 16.3697 45.2863 15.5698C45.7505 14.76 46.3824 14.1329 47.1823 13.6885C47.9921 13.2343 48.8907 13.0071 49.8782 13.0071C51.0434 13.0071 52.0556 13.2935 52.9147 13.8663C53.7738 14.4292 54.3663 15.2242 54.6922 16.2512H52.3074Z" fill="#37003C"/>
<path d="M56.8486 14.8143V17.4066H60.3295V19.0509H56.8486V21.7914H60.7738V23.4801H54.7748V13.1256H60.7738V14.8143H56.8486Z" fill="#37003C"/>
<path d="M70.2423 13.1404L66.4503 23.4801H63.9322L60.1403 13.1404H62.3621L65.2061 21.3618L68.0353 13.1404H70.2423Z" fill="#37003C"/>
<path d="M71.8559 13.1404V23.4801H69.7822V13.1404H71.8559Z" fill="#37003C"/>
<path d="M79.2373 13.1404V14.8143H76.4822V23.4801H74.4084V14.8143H71.6533V13.1404H79.2373Z" fill="#37003C"/>
<path d="M87.2678 13.1404L83.7721 19.8804V23.4801H81.6983V19.8804L78.1878 13.1404H80.5281L82.75 17.8659L84.957 13.1404H87.2678Z" fill="#37003C"/>
<path d="M22.6845 27.7965V30.4179H22.422V29.1916H21.0008V30.4179H20.7383V27.7965H21.0008V28.9741H22.422V27.7965H22.6845Z" fill="#37003C"/>
<path d="M24.9897 28.0103V28.9891H25.9834V29.2066H24.9897V30.2004H26.0959V30.4179H24.7272V27.7928H26.0959V28.0103H24.9897Z" fill="#37003C"/>
<path d="M29.5756 29.7954H28.3831L28.1544 30.4179H27.8769L28.8331 27.8303H29.1294L30.0819 30.4179H29.8044L29.5756 29.7954ZM29.4969 29.5778L28.9794 28.1603L28.4619 29.5778H29.4969Z" fill="#37003C"/>
<path d="M32.2094 30.2041H33.1506V30.4179H31.9469V27.7965H32.2094V30.2041Z" fill="#37003C"/>
<path d="M36.5027 27.7965V28.014H35.7752V30.4179H35.5127V28.014H34.7815V27.7965H36.5027Z" fill="#37003C"/>
<path d="M40.3072 27.7965V30.4179H40.0447V29.1916H38.6235V30.4179H38.361V27.7965H38.6235V28.9741H40.0447V27.7965H40.3072Z" fill="#37003C"/>
<path d="M46.3414 29.7954H45.1489L44.9201 30.4179H44.6426L45.5989 27.8303H45.8951L46.8476 30.4179H46.5701L46.3414 29.7954ZM46.2626 29.5778L45.7451 28.1603L45.2276 29.5778H46.2626Z" fill="#37003C"/>
<path d="M50.6889 30.4179H50.4264L48.9751 28.2128V30.4179H48.7126V27.7965H48.9751L50.4264 29.9979V27.7965H50.6889V30.4179Z" fill="#37003C"/>
<path d="M53.5034 27.7965C53.7934 27.7965 54.0422 27.849 54.2496 27.954C54.4571 28.059 54.6159 28.2103 54.7259 28.4078C54.8359 28.6053 54.8909 28.8403 54.8909 29.1128C54.8909 29.3828 54.8359 29.6166 54.7259 29.8141C54.6159 30.0091 54.4571 30.1591 54.2496 30.2641C54.0422 30.3666 53.7934 30.4179 53.5034 30.4179H52.7272V27.7965H53.5034ZM53.5034 30.2004C53.8684 30.2004 54.1459 30.1054 54.3359 29.9154C54.5284 29.7229 54.6246 29.4553 54.6246 29.1128C54.6246 28.7678 54.5284 28.499 54.3359 28.3065C54.1459 28.1115 53.8684 28.014 53.5034 28.014H52.9897V30.2004H53.5034Z" fill="#37003C"/>
<path d="M62.4713 27.7965L61.7289 30.4179H61.4364L60.7764 28.1828L60.1014 30.4179L59.8164 30.4216L59.0889 27.7965H59.3701L59.9701 30.0954L60.6414 27.7965H60.9339L61.5864 30.0954L62.1901 27.7965H62.4713Z" fill="#37003C"/>
<path d="M64.5791 28.0103V28.9891H65.5729V29.2066H64.5791V30.2004H65.6854V30.4179H64.3166V27.7928H65.6854V28.0103H64.5791Z" fill="#37003C"/>
<path d="M67.9088 30.2041H68.8501V30.4179H67.6463V27.7965H67.9088V30.2041Z" fill="#37003C"/>
<path d="M70.9309 30.2041H71.8722V30.4179H70.6684V27.7965H70.9309V30.2041Z" fill="#37003C"/>
<path d="M75.6668 30.4179H75.4043L73.953 28.2128V30.4179H73.6905V27.7965H73.953L75.4043 29.9979V27.7965H75.6668V30.4179Z" fill="#37003C"/>
<path d="M77.9676 28.0103V28.9891H78.9613V29.2066H77.9676V30.2004H79.0738V30.4179H77.7051V27.7928H79.0738V28.0103H77.9676Z" fill="#37003C"/>
<path d="M81.8298 30.4441C81.6573 30.4441 81.5048 30.4141 81.3723 30.3541C81.2423 30.2941 81.1398 30.2104 81.0648 30.1029C80.9898 29.9954 80.9498 29.8754 80.9448 29.7429H81.2223C81.2348 29.8704 81.291 29.9829 81.391 30.0804C81.491 30.1754 81.6373 30.2229 81.8298 30.2229C82.0073 30.2229 82.1473 30.1779 82.2498 30.0879C82.3548 29.9954 82.4073 29.8791 82.4073 29.7391C82.4073 29.6266 82.3785 29.5366 82.321 29.4691C82.2635 29.3991 82.1923 29.3478 82.1073 29.3153C82.0223 29.2803 81.9048 29.2428 81.7548 29.2028C81.5798 29.1553 81.441 29.1091 81.3385 29.0641C81.236 29.0191 81.1485 28.9491 81.076 28.8541C81.0035 28.7591 80.9673 28.6303 80.9673 28.4678C80.9673 28.3328 81.0023 28.2128 81.0723 28.1078C81.1423 28.0003 81.241 27.9165 81.3685 27.8565C81.496 27.7965 81.6423 27.7665 81.8073 27.7665C82.0498 27.7665 82.2448 27.8265 82.3923 27.9465C82.5423 28.064 82.6285 28.2165 82.651 28.404H82.366C82.3485 28.2965 82.2898 28.2015 82.1898 28.119C82.0898 28.034 81.9548 27.9915 81.7848 27.9915C81.6273 27.9915 81.496 28.034 81.391 28.119C81.286 28.2015 81.2335 28.3153 81.2335 28.4603C81.2335 28.5703 81.2623 28.6591 81.3198 28.7266C81.3773 28.7941 81.4485 28.8453 81.5335 28.8803C81.621 28.9153 81.7385 28.9528 81.886 28.9928C82.056 29.0403 82.1935 29.0878 82.2985 29.1353C82.4035 29.1803 82.4923 29.2503 82.5648 29.3453C82.6373 29.4403 82.6735 29.5678 82.6735 29.7279C82.6735 29.8504 82.641 29.9666 82.576 30.0766C82.511 30.1866 82.4148 30.2754 82.2873 30.3429C82.1598 30.4104 82.0073 30.4441 81.8298 30.4441Z" fill="#37003C"/>
<path d="M85.4195 30.4441C85.247 30.4441 85.0945 30.4141 84.962 30.3541C84.832 30.2941 84.7295 30.2104 84.6545 30.1029C84.5795 29.9954 84.5395 29.8754 84.5345 29.7429H84.812C84.8245 29.8704 84.8807 29.9829 84.9807 30.0804C85.0807 30.1754 85.227 30.2229 85.4195 30.2229C85.597 30.2229 85.737 30.1779 85.8395 30.0879C85.9445 29.9954 85.997 29.8791 85.997 29.7391C85.997 29.6266 85.9682 29.5366 85.9107 29.4691C85.8532 29.3991 85.782 29.3478 85.697 29.3153C85.612 29.2803 85.4945 29.2428 85.3445 29.2028C85.1695 29.1553 85.0307 29.1091 84.9282 29.0641C84.8257 29.0191 84.7382 28.9491 84.6657 28.8541C84.5932 28.7591 84.557 28.6303 84.557 28.4678C84.557 28.3328 84.592 28.2128 84.662 28.1078C84.732 28.0003 84.8307 27.9165 84.9582 27.8565C85.0857 27.7965 85.232 27.7665 85.397 27.7665C85.6395 27.7665 85.8345 27.8265 85.982 27.9465C86.132 28.064 86.2182 28.2165 86.2407 28.404H85.9557C85.9382 28.2965 85.8795 28.2015 85.7795 28.119C85.6795 28.034 85.5445 27.9915 85.3745 27.9915C85.217 27.9915 85.0857 28.034 84.9807 28.119C84.8757 28.2015 84.8232 28.3153 84.8232 28.4603C84.8232 28.5703 84.852 28.6591 84.9095 28.7266C84.967 28.7941 85.0382 28.8453 85.1232 28.8803C85.2107 28.9153 85.3282 28.9528 85.4757 28.9928C85.6457 29.0403 85.7832 29.0878 85.8882 29.1353C85.9932 29.1803 86.082 29.2503 86.1545 29.3453C86.227 29.4403 86.2632 29.5678 86.2632 29.7279C86.2632 29.8504 86.2307 29.9666 86.1657 30.0766C86.1007 30.1866 86.0045 30.2754 85.877 30.3429C85.7495 30.4104 85.597 30.4441 85.4195 30.4441Z" fill="#37003C"/>
</g>
<g id="Group 142">
<path id="Vector_2" d="M1.76175 1.63281L1.62159 6.04265C1.35418 8.15235 2.97615 9.85354 4.76183 11.0083L7.15234 12.3208" stroke="#37003C" stroke-width="0.562511"/>
<path id="Vector_3" d="M12.3281 29.0078L12.4683 24.598C12.7357 22.4883 11.1137 20.7871 9.32801 19.6324L6.9375 18.3198" stroke="#37003C" stroke-width="0.562511"/>
<g id="Vector_4">
<path d="M3.37498 1.72664C3.37498 2.65867 2.61946 3.41422 1.68749 3.41422C0.755514 3.41422 0 2.65867 0 1.72664C0 0.794618 0.755514 0.0390625 1.68749 0.0390625C2.61946 0.0390625 3.37498 0.794618 3.37498 1.72664Z" fill="#BF04B3"/>
<path d="M10.6874 29.0092C10.6874 28.0772 11.4429 27.3216 12.3749 27.3216C13.3069 27.3216 14.0624 28.0772 14.0624 29.0092C14.0624 29.9412 13.3069 30.6968 12.3749 30.6968C11.4429 30.6968 10.6874 29.9412 10.6874 29.0092Z" fill="#BF04B3"/>
<path d="M3.37498 7.82068C3.37498 8.75271 2.61946 9.50826 1.68749 9.50826C0.755514 9.50826 0 8.75271 0 7.82068C0 6.88866 0.755514 6.1331 1.68749 6.1331C2.61946 6.1331 3.37498 6.88866 3.37498 7.82068Z" fill="#BF04B3"/>
<path d="M10.6874 22.9152C10.6874 21.9831 11.4429 21.2276 12.3749 21.2276C13.3069 21.2276 14.0624 21.9831 14.0624 22.9152C14.0624 23.8472 13.3069 24.6027 12.3749 24.6027C11.4429 24.6027 10.6874 23.8472 10.6874 22.9152Z" fill="#BF04B3"/>
<path d="M14.0624 1.72664C14.0624 2.65867 13.3069 3.41422 12.3749 3.41422C11.4429 3.41422 10.6874 2.65867 10.6874 1.72664C10.6874 0.794618 11.4429 0.0390625 12.3749 0.0390625C13.3069 0.0390625 14.0624 0.794618 14.0624 1.72664Z" fill="#BF04B3"/>
<path d="M1.47525e-07 29.0092C2.29001e-07 28.0772 0.755514 27.3216 1.68749 27.3216C2.61946 27.3216 3.37498 28.0772 3.37498 29.0092C3.37498 29.9412 2.61946 30.6968 1.68749 30.6968C0.755514 30.6968 6.60491e-08 29.9412 1.47525e-07 29.0092Z" fill="#BF04B3"/>
<path d="M14.0624 7.82068C14.0624 8.75271 13.3069 9.50826 12.3749 9.50826C11.4429 9.50826 10.6874 8.75271 10.6874 7.82068C10.6874 6.88866 11.4429 6.1331 12.3749 6.1331C13.3069 6.1331 14.0624 6.88866 14.0624 7.82068Z" fill="#BF04B3"/>
<path d="M1.47525e-07 22.9152C2.29001e-07 21.9831 0.755514 21.2276 1.68749 21.2276C2.61946 21.2276 3.37498 21.9831 3.37498 22.9152C3.37498 23.8472 2.61946 24.6027 1.68749 24.6027C0.755514 24.6027 6.60491e-08 23.8472 1.47525e-07 22.9152Z" fill="#BF04B3"/>
<path d="M8.71869 12.3209C8.71869 13.2529 7.96317 14.0085 7.0312 14.0085C6.09923 14.0085 5.34371 13.2529 5.34371 12.3209C5.34371 11.3889 6.09923 10.6333 7.0312 10.6333C7.96317 10.6333 8.71869 11.3889 8.71869 12.3209Z" fill="#BF04B3"/>
<path d="M5.34371 18.4149C5.34371 17.4829 6.09923 16.7274 7.0312 16.7274C7.96317 16.7274 8.71869 17.4829 8.71869 18.4149C8.71869 19.347 7.96317 20.1025 7.0312 20.1025C6.09923 20.1025 5.34371 19.347 5.34371 18.4149Z" fill="#BF04B3"/>
</g>
</g>
</g>
</svg>
