<svg width="175" height="62" viewBox="0 0 175 62" fill="none" xmlns="http://www.w3.org/2000/svg">
<g id="LOGO">
<g id="Vector">
<path d="M49.0242 0.0296263C51.1967 0.0296263 53.1026 0.45425 54.7418 1.3035C56.4008 2.15275 57.6747 3.36737 58.5634 4.94737C59.4719 6.50761 59.9262 8.32461 59.9262 10.3984C59.9262 12.4721 59.4719 14.2891 58.5634 15.8493C57.6747 17.3898 56.4008 18.5847 54.7418 19.434C53.1026 20.2832 51.1967 20.7078 49.0242 20.7078H41.7957V0.0296263H49.0242ZM48.8761 17.1825C51.0486 17.1825 52.7273 16.59 53.9123 15.405C55.0973 14.22 55.6898 12.5511 55.6898 10.3984C55.6898 8.24561 55.0973 6.56686 53.9123 5.36212C52.7273 4.13762 51.0486 3.52537 48.8761 3.52537H45.9432V17.1825H48.8761Z" fill="#BF04B3"/>
<path d="M77.3101 20.7078H73.1626L63.7714 6.51749V20.7078H59.6239V0H63.7714L73.1626 14.22V0H77.3101V20.7078Z" fill="#BF04B3"/>
<path d="M90.6814 16.7677H82.4456L81.0829 20.7078H76.728L84.1639 0H88.9927L96.4286 20.7078H92.0441L90.6814 16.7677ZM89.5556 13.4497L86.5635 4.79924L83.5714 13.4497H89.5556Z" fill="#BF04B3"/>
<path d="M45.9432 43.6694H59.6266V46.9578H41.7957V26.2796H45.9432V43.6694Z" fill="#BF04B3"/>
<path d="M61.5847 47.1652C59.6492 47.1652 57.8717 46.7109 56.2522 45.8024C54.6327 44.8939 53.349 43.6398 52.401 42.0401C51.453 40.4206 50.979 38.5937 50.979 36.5594C50.979 34.5449 51.453 32.7378 52.401 31.1381C53.349 29.5186 54.6327 28.2546 56.2522 27.3461C57.8717 26.4376 59.6492 25.9833 61.5847 25.9833C63.54 25.9833 65.3175 26.4376 66.9172 27.3461C68.5367 28.2546 69.8106 29.5186 70.7389 31.1381C71.6869 32.7378 72.1609 34.5449 72.1609 36.5594C72.1609 38.5937 71.6869 40.4206 70.7389 42.0401C69.8106 43.6398 68.5367 44.8939 66.9172 45.8024C65.2977 46.7109 63.5202 47.1652 61.5847 47.1652ZM61.5847 43.462C62.829 43.462 63.9251 43.1855 64.8731 42.6325C65.8211 42.0598 66.5617 41.2501 67.095 40.2033C67.6282 39.1566 67.8949 37.9419 67.8949 36.5594C67.8949 35.1769 67.6282 33.9722 67.095 32.9452C66.5617 31.8984 65.8211 31.0986 64.8731 30.5456C63.9251 29.9926 62.829 29.7161 61.5847 29.7161C60.3405 29.7161 59.2345 29.9926 58.2667 30.5456C57.3187 31.0986 56.5781 31.8984 56.0449 32.9452C55.5116 33.9722 55.245 35.1769 55.245 36.5594C55.245 37.9419 55.5116 39.1566 56.0449 40.2033C56.5781 41.2501 57.3187 42.0598 58.2667 42.6325C59.2345 43.1855 60.3405 43.462 61.5847 43.462Z" fill="#BF04B3"/>
<path d="M89.5258 46.9578H85.3782L75.9871 32.7674V46.9578H71.8396V26.25H75.9871L85.3782 40.4699V26.25H89.5258V46.9578Z" fill="#BF04B3"/>
<path d="M104.615 32.5008C104.141 31.6318 103.49 30.9702 102.66 30.5159C101.831 30.0617 100.863 29.8346 99.7568 29.8346C98.5323 29.8346 97.446 30.1111 96.498 30.6641C95.55 31.2171 94.8094 32.0071 94.2762 33.0341C93.7429 34.0611 93.4763 35.2461 93.4763 36.5891C93.4763 37.9716 93.7429 39.1763 94.2762 40.2033C94.8292 41.2303 95.5895 42.0203 96.5573 42.5733C97.525 43.1263 98.6508 43.4028 99.9345 43.4028C101.515 43.4028 102.808 42.988 103.815 42.1586C104.823 41.3093 105.484 40.1342 105.8 38.6332H98.6903V35.4633H109.889V39.0776C109.612 40.5193 109.02 41.8524 108.111 43.0769C107.203 44.3014 106.027 45.2889 104.586 46.0394C103.164 46.7702 101.564 47.1355 99.7864 47.1355C97.7917 47.1355 95.9845 46.6912 94.365 45.8024C92.7653 44.8939 91.5013 43.6398 90.573 42.0401C89.6645 40.4403 89.2103 38.6233 89.2103 36.5891C89.2103 34.5548 89.6645 32.7378 90.573 31.1381C91.5013 29.5186 92.7653 28.2645 94.365 27.3757C95.9845 26.4672 97.7818 26.013 99.7568 26.013C102.087 26.013 104.112 26.5857 105.83 27.7312C107.548 28.857 108.733 30.4468 109.385 32.5008H104.615Z" fill="#BF04B3"/>
<path d="M113.698 29.6272V34.8116H120.66V38.0999H113.698V43.5805H121.548V46.9578H109.55V26.25H121.548V29.6272H113.698Z" fill="#BF04B3"/>
<path d="M140.485 26.2796L132.901 46.9578H127.865L120.281 26.2796H124.725L130.413 42.7214L136.071 26.2796H140.485Z" fill="#BF04B3"/>
<path d="M143.713 26.2796V46.9578H139.565V26.2796H143.713Z" fill="#BF04B3"/>
<path d="M158.475 26.2796V29.6272H152.965V46.9578H148.818V29.6272H143.307V26.2796H158.475Z" fill="#BF04B3"/>
<path d="M174.537 26.2796L167.545 39.7589V46.9578H163.398V39.7589L156.376 26.2796H161.057L165.501 35.7299L169.915 26.2796H174.537Z" fill="#BF04B3"/>
<path d="M45.3691 55.5903V60.8328H44.8441V58.3803H42.0016V60.8328H41.4766V55.5903H42.0016V57.9453H44.8441V55.5903H45.3691Z" fill="#BF04B3"/>
<path d="M49.9794 56.0178V57.9753H51.9669V58.4103H49.9794V60.3978H52.1919V60.8328H49.4544V55.5828H52.1919V56.0178H49.9794Z" fill="#BF04B3"/>
<path d="M59.1514 59.5878H56.7664L56.3089 60.8328H55.7539L57.6664 55.6578H58.2589L60.1639 60.8328H59.6089L59.1514 59.5878ZM58.9939 59.1528L57.9589 56.3178L56.9239 59.1528H58.9939Z" fill="#BF04B3"/>
<path d="M64.419 60.4053H66.3015V60.8328H63.894V55.5903H64.419V60.4053Z" fill="#BF04B3"/>
<path d="M73.0057 55.5903V56.0253H71.5507V60.8328H71.0257V56.0253H69.5632V55.5903H73.0057Z" fill="#BF04B3"/>
<path d="M80.6147 55.5903V60.8328H80.0897V58.3803H77.2472V60.8328H76.7222V55.5903H77.2472V57.9453H80.0897V55.5903H80.6147Z" fill="#BF04B3"/>
<path d="M92.6831 59.5878H90.2981L89.8406 60.8328H89.2856L91.1981 55.6578H91.7906L93.6956 60.8328H93.1406L92.6831 59.5878ZM92.5256 59.1528L91.4906 56.3178L90.4556 59.1528H92.5256Z" fill="#BF04B3"/>
<path d="M101.378 60.8328H100.853L97.9507 56.4228V60.8328H97.4257V55.5903H97.9507L100.853 59.9928V55.5903H101.378V60.8328Z" fill="#BF04B3"/>
<path d="M107.007 55.5903C107.587 55.5903 108.085 55.6953 108.5 55.9053C108.915 56.1153 109.232 56.4178 109.452 56.8128C109.672 57.2078 109.782 57.6778 109.782 58.2228C109.782 58.7628 109.672 59.2303 109.452 59.6253C109.232 60.0153 108.915 60.3153 108.5 60.5253C108.085 60.7303 107.587 60.8328 107.007 60.8328H105.455V55.5903H107.007ZM107.007 60.3978C107.737 60.3978 108.292 60.2078 108.672 59.8278C109.057 59.4428 109.25 58.9078 109.25 58.2228C109.25 57.5328 109.057 56.9953 108.672 56.6103C108.292 56.2203 107.737 56.0253 107.007 56.0253H105.98V60.3978H107.007Z" fill="#BF04B3"/>
<path d="M124.943 55.5903L123.458 60.8328H122.873L121.553 56.3628L120.203 60.8328L119.633 60.8403L118.178 55.5903H118.741L119.941 60.1878L121.283 55.5903H121.868L123.173 60.1878L124.381 55.5903H124.943Z" fill="#BF04B3"/>
<path d="M129.159 56.0178V57.9753H131.146V58.4103H129.159V60.3978H131.371V60.8328H128.634V55.5828H131.371V56.0178H129.159Z" fill="#BF04B3"/>
<path d="M135.818 60.4053H137.701V60.8328H135.293V55.5903H135.818V60.4053Z" fill="#BF04B3"/>
<path d="M141.863 60.4053H143.745V60.8328H141.338V55.5903H141.863V60.4053Z" fill="#BF04B3"/>
<path d="M151.334 60.8328H150.809L147.907 56.4228V60.8328H147.382V55.5903H147.907L150.809 59.9928V55.5903H151.334V60.8328Z" fill="#BF04B3"/>
<path d="M155.936 56.0178V57.9753H157.923V58.4103H155.936V60.3978H158.148V60.8328H155.411V55.5828H158.148V56.0178H155.936Z" fill="#BF04B3"/>
<path d="M163.66 60.8853C163.315 60.8853 163.01 60.8253 162.745 60.7053C162.485 60.5853 162.28 60.4178 162.13 60.2028C161.98 59.9878 161.9 59.7478 161.89 59.4828H162.445C162.47 59.7378 162.583 59.9628 162.783 60.1578C162.983 60.3478 163.275 60.4428 163.66 60.4428C164.015 60.4428 164.295 60.3528 164.5 60.1728C164.71 59.9878 164.815 59.7553 164.815 59.4753C164.815 59.2503 164.758 59.0703 164.643 58.9353C164.528 58.7953 164.385 58.6928 164.215 58.6278C164.045 58.5578 163.81 58.4828 163.51 58.4028C163.16 58.3078 162.883 58.2153 162.678 58.1253C162.473 58.0353 162.298 57.8953 162.153 57.7053C162.008 57.5153 161.935 57.2578 161.935 56.9328C161.935 56.6628 162.005 56.4228 162.145 56.2128C162.285 55.9978 162.483 55.8303 162.738 55.7103C162.993 55.5903 163.285 55.5303 163.615 55.5303C164.1 55.5303 164.49 55.6503 164.785 55.8903C165.085 56.1253 165.258 56.4303 165.303 56.8053H164.733C164.698 56.5903 164.58 56.4003 164.38 56.2353C164.18 56.0653 163.91 55.9803 163.57 55.9803C163.255 55.9803 162.993 56.0653 162.783 56.2353C162.573 56.4003 162.468 56.6278 162.468 56.9178C162.468 57.1378 162.525 57.3153 162.64 57.4503C162.755 57.5853 162.898 57.6878 163.068 57.7578C163.243 57.8278 163.478 57.9028 163.773 57.9828C164.113 58.0778 164.388 58.1728 164.598 58.2678C164.808 58.3578 164.985 58.4978 165.13 58.6878C165.275 58.8778 165.348 59.1328 165.348 59.4528C165.348 59.6978 165.283 59.9303 165.153 60.1503C165.023 60.3703 164.83 60.5478 164.575 60.6828C164.32 60.8178 164.015 60.8853 163.66 60.8853Z" fill="#BF04B3"/>
<path d="M170.84 60.8853C170.495 60.8853 170.19 60.8253 169.925 60.7053C169.665 60.5853 169.46 60.4178 169.31 60.2028C169.16 59.9878 169.08 59.7478 169.07 59.4828H169.625C169.65 59.7378 169.762 59.9628 169.962 60.1578C170.162 60.3478 170.455 60.4428 170.84 60.4428C171.195 60.4428 171.475 60.3528 171.68 60.1728C171.89 59.9878 171.995 59.7553 171.995 59.4753C171.995 59.2503 171.937 59.0703 171.822 58.9353C171.707 58.7953 171.565 58.6928 171.395 58.6278C171.225 58.5578 170.99 58.4828 170.69 58.4028C170.34 58.3078 170.062 58.2153 169.857 58.1253C169.652 58.0353 169.477 57.8953 169.332 57.7053C169.187 57.5153 169.115 57.2578 169.115 56.9328C169.115 56.6628 169.185 56.4228 169.325 56.2128C169.465 55.9978 169.662 55.8303 169.917 55.7103C170.172 55.5903 170.465 55.5303 170.795 55.5303C171.28 55.5303 171.67 55.6503 171.965 55.8903C172.265 56.1253 172.437 56.4303 172.482 56.8053H171.912C171.877 56.5903 171.76 56.4003 171.56 56.2353C171.36 56.0653 171.09 55.9803 170.75 55.9803C170.435 55.9803 170.172 56.0653 169.962 56.2353C169.752 56.4003 169.647 56.6278 169.647 56.9178C169.647 57.1378 169.705 57.3153 169.82 57.4503C169.935 57.5853 170.077 57.6878 170.247 57.7578C170.422 57.8278 170.657 57.9028 170.952 57.9828C171.292 58.0778 171.567 58.1728 171.777 58.2678C171.987 58.3578 172.165 58.4978 172.31 58.6878C172.455 58.8778 172.527 59.1328 172.527 59.4528C172.527 59.6978 172.462 59.9303 172.332 60.1503C172.202 60.3703 172.01 60.5478 171.755 60.6828C171.5 60.8178 171.195 60.8853 170.84 60.8853Z" fill="#BF04B3"/>
</g>
<g id="Group 142">
<path id="Vector_2" d="M3.52732 3.26953L3.24699 12.0888C2.71218 16.308 5.95615 19.7102 9.52753 22.0195L14.3086 24.6445" stroke="#BF04B3" stroke-width="1.125"/>
<path id="Vector_3" d="M24.6563 58.0195L24.9366 49.2003C25.4714 44.9811 22.2274 41.5789 18.6561 39.2696L13.875 36.6446" stroke="#BF04B3" stroke-width="1.125"/>
<g id="Vector_4">
<path d="M6.75 3.45703C6.75 5.32098 5.23896 6.83202 3.375 6.83202C1.51104 6.83202 0 5.32098 0 3.45703C0 1.59307 1.51104 0.0820312 3.375 0.0820312C5.23896 0.0820312 6.75 1.59307 6.75 3.45703Z" fill="#BF04B3"/>
<path d="M21.375 58.0194C21.375 56.1555 22.886 54.6444 24.75 54.6444C26.614 54.6444 28.125 56.1555 28.125 58.0194C28.125 59.8834 26.614 61.3944 24.75 61.3944C22.886 61.3944 21.375 59.8834 21.375 58.0194Z" fill="#BF04B3"/>
<path d="M6.75 15.6445C6.75 17.5085 5.23896 19.0195 3.375 19.0195C1.51104 19.0195 0 17.5085 0 15.6445C0 13.7805 1.51104 12.2695 3.375 12.2695C5.23896 12.2695 6.75 13.7805 6.75 15.6445Z" fill="#BF04B3"/>
<path d="M21.375 45.8319C21.375 43.968 22.886 42.457 24.75 42.457C26.614 42.457 28.125 43.968 28.125 45.8319C28.125 47.6959 26.614 49.2069 24.75 49.2069C22.886 49.2069 21.375 47.6959 21.375 45.8319Z" fill="#BF04B3"/>
<path d="M28.125 3.45703C28.125 5.32098 26.614 6.83202 24.75 6.83202C22.886 6.83202 21.375 5.32098 21.375 3.45703C21.375 1.59307 22.886 0.0820312 24.75 0.0820312C26.614 0.0820312 28.125 1.59307 28.125 3.45703Z" fill="#BF04B3"/>
<path d="M2.95052e-07 58.0194C4.58005e-07 56.1555 1.51104 54.6444 3.375 54.6444C5.23896 54.6444 6.75 56.1555 6.75 58.0194C6.75 59.8834 5.23896 61.3944 3.375 61.3944C1.51104 61.3944 1.32099e-07 59.8834 2.95052e-07 58.0194Z" fill="#BF04B3"/>
<path d="M28.125 15.6445C28.125 17.5085 26.614 19.0195 24.75 19.0195C22.886 19.0195 21.375 17.5085 21.375 15.6445C21.375 13.7805 22.886 12.2695 24.75 12.2695C26.614 12.2695 28.125 13.7805 28.125 15.6445Z" fill="#BF04B3"/>
<path d="M2.95052e-07 45.8319C4.58005e-07 43.968 1.51104 42.457 3.375 42.457C5.23896 42.457 6.75 43.968 6.75 45.8319C6.75 47.6959 5.23896 49.2069 3.375 49.2069C1.51104 49.2069 1.32099e-07 47.6959 2.95052e-07 45.8319Z" fill="#BF04B3"/>
<path d="M17.4375 24.6445C17.4375 26.5084 15.9265 28.0195 14.0625 28.0195C12.1985 28.0195 10.6875 26.5084 10.6875 24.6445C10.6875 22.7805 12.1985 21.2695 14.0625 21.2695C15.9265 21.2695 17.4375 22.7805 17.4375 24.6445Z" fill="#BF04B3"/>
<path d="M10.6875 36.832C10.6875 34.968 12.1985 33.457 14.0625 33.457C15.9265 33.457 17.4375 34.968 17.4375 36.832C17.4375 38.6959 15.9265 40.207 14.0625 40.207C12.1985 40.207 10.6875 38.6959 10.6875 36.832Z" fill="#BF04B3"/>
</g>
</g>
</g>
</svg>
